@startuml
hide circle
hide methods
allow_mixing

'skinparam monochrome false
'skinparam packageStyle rectangle
'skinparam shadowing false
'skinparam linetype ortho

' Title
title Domain Model


skinparam classAttributeIconSize 0

skinparam class {
    LifeLineBorderColor DodgerBlue
    LifeLineBackgroundColor APPLICATION
    BackgroundColor LemonChiffon
    ArrowColor Brown
    BorderColor SaddleBrown
}

skinparam packageStyle rectangle

skinparam card {
    LifeLineBorderColor DodgerBlue
    LifeLineBackgroundColor APPLICATION
    BackgroundColor LemonChiffon
    ArrowColor Brown
    BorderColor SaddleBrown
}


' Aggregates

package "User Aggregate" {

    entity User <<entity>><<root>> {
    }

    card Username <<Value Object>>
    card Email <<Value Object>>

    enum Role <<enumeration>> {
        Admin
        Doctor
        Nurse
        Technician
        Patient
    }

    ' Relationships inside the User aggregate

    User "1"-->"1" Username
    User "1"-->"1" Email
    User "1"-->"1" Role


}

package "Patient Aggregate" {

    entity Patient <<entity>><<root>> {
    }

    card PatientFirstName <<Value Object>>
    card PatientLastName <<Value Object>>
    card PatientFullName <<Value Object>>
    card DateOfBirth <<Value Object>>
    card Gender <<Value Object>>
    card MedicalRecordNumber <<Value Object>>
    card ContactInformation <<Value Object>>
    card AllergiesAndConditions <<Value Object>>
    card EmergencyContact <<Value Object>>
    'card AppointmentHistory <<Value Object>>

    ' Atributos Contact Information
    card PatientEmail <<Value Object>>
    card PhoneNumber <<Value Object>>

    ' Relationships Contact Information
    ContactInformation "1"-->"1" PatientEmail
    ContactInformation "1"-->"1" PhoneNumber

    ' Relationships inside the Patient aggregate
    Patient "1"-->"1" PatientFirstName
    Patient "1"-->"1" PatientLastName
    Patient "1"-->"1" PatientFullName
    Patient "1"-->"1" DateOfBirth
    Patient "1"--> "1" Gender
    Patient "1"-->"1" MedicalRecordNumber
    Patient "1"--> "1" ContactInformation
    Patient "1"--> "*" AllergiesAndConditions
    Patient "1"--> "1" EmergencyContact

}

' Relationships

Patient "1" -d-> "1" User


@enduml
